<?xml version="1.0" encoding="utf-8"?>
<!-- Generator: Adobe Illustrator 16.0.0, SVG Export Plug-In . SVG Version: 6.00 Build 0)  -->
<!DOCTYPE svg PUBLIC "-//W3C//DTD SVG 1.1//EN" "http://www.w3.org/Graphics/SVG/1.1/DTD/svg11.dtd">
<svg version="1.1" id="Layer_1" xmlns="http://www.w3.org/2000/svg" xmlns:xlink="http://www.w3.org/1999/xlink" x="0px" y="0px"
	 width="344px" height="460px" viewBox="0 0 344 460" enable-background="new 0 0 344 460" xml:space="preserve">
<g>
	<g>
		<path fill="#C5D7EA" d="M338.213,57.152c0.12-0.594,0.184-1.188,0.184-1.785c0-20.333-77.533-49.895-164.215-49.895
			c-86.685,0-168.578,28.108-168.578,48.44c0,0.598,0.067,1.195,0.187,1.786l47.772,334.4h0.069
			c-0.019,0.486-0.069,0.967-0.069,1.455c0,34.779,54.001,62.974,120.619,62.974c66.617,0,120.619-28.194,120.619-62.974
			c0-0.488-0.051-0.969-0.069-1.455h0.069L338.213,57.152z"/>
		<path fill="#FEDF19" d="M58.223,196.606L84.04,387.474c0,0,7.838,13.94,12.13,16.174c12.879,6.703,38.12,18.633,78.232,17.938
			c53.479-0.921,85.287-20.284,85.287-20.284l8.599-13.387l25.055-199.607L58.223,196.606z"/>
		<path fill="#FFFFFF" d="M47.156,102.558c3.689-6.917,10.089-16.395,17.492-20.878c7.403-4.48,53.561-19.267,113.468-18.789
			c59.903,0.479,106.883,17.6,113.822,25.174c6.941,7.576,12.474,22.329,12.474,22.329l-11.069,77.914
			c0,0-10.628,7.289-22.832,11.251c-12.203,3.962-46.405,0.82-56.506,5.157c-10.098,4.338-38.682,19.838-38.682,19.838
			s-25.892,20.652-53.228,14.718c-17.255-3.745-35.087-34.726-47.347-35.583c-9.461-0.66-15.605-3.856-15.605-3.856
			S43.467,109.473,47.156,102.558z"/>
		<path fill="#FFFFFF" d="M126.628,269.117c0,10.966-11.275,19.857-25.188,19.857c-13.913,0-25.191-8.892-25.191-19.857
			c0-10.973,11.278-19.86,25.191-19.86C115.353,249.257,126.628,258.145,126.628,269.117z"/>
		<path fill="#FFFFFF" d="M121.301,294.791c0,5.618-5.638,10.17-12.595,10.17c-6.956,0-12.597-4.552-12.597-10.17
			c0-5.624,5.641-10.176,12.597-10.176C115.663,284.615,121.301,289.167,121.301,294.791z"/>
	</g>
	<g>
		<path fill="#3C3835" d="M90.326,380.6l18.963-11.479c3.658,6.484,6.987,11.975,14.971,11.975c7.651,0,12.474-2.994,12.474-14.632
			v-79.186h23.29v79.515c0,24.121-14.138,35.096-34.767,35.096C106.625,401.889,95.813,392.243,90.326,380.6"/>
		<path fill="#3C3835" d="M172.667,378.102l18.959-10.979c4.993,8.153,11.483,14.141,22.959,14.141
			c9.648,0,15.801-4.826,15.801-11.478c0-7.986-6.319-10.812-16.965-15.469l-5.821-2.498c-16.804-7.149-27.948-16.129-27.948-35.097
			c0-17.469,13.309-30.772,34.099-30.772c14.807,0,25.454,5.155,33.104,18.632l-18.13,11.639c-3.992-7.148-8.317-9.98-14.974-9.98
			c-6.818,0-11.145,4.329-11.145,9.98c0,6.987,4.326,9.819,14.306,14.143l5.823,2.494c19.796,8.485,30.94,17.137,30.94,36.594
			c0,20.962-16.47,32.438-38.592,32.438C193.458,401.889,179.487,391.579,172.667,378.102"/>
	</g>
	<g>
		<rect x="67.457" y="123.558" fill="none" width="236.956" height="64.75"/>
		<text transform="matrix(1 0 0 1 67.4565 176.8076)" fill="#3C3835" font-family="'MyriadPro-Bold'" font-size="75">Lisbon</text>
	</g>
</g>
</svg>
